<?xml version="1.0" encoding="UTF-8" standalone="no"?>
<!DOCTYPE svg PUBLIC "-//W3C//DTD SVG 1.1//EN"
 "http://www.w3.org/Graphics/SVG/1.1/DTD/svg11.dtd">
<!-- Generated by graphviz version 2.38.0 (20140413.2041)
 -->
<!-- Title: Combined Pages: 1 -->
<svg width="417pt" height="331pt"
 viewBox="0.72 0.72 416.44 330.59" xmlns="http://www.w3.org/2000/svg" xmlns:xlink="http://www.w3.org/1999/xlink">
<g id="graph0" class="graph" transform="scale(1 1) rotate(0) translate(4.72 326.585)">
<title>Combined</title>
<polygon fill="white" stroke="none" points="-4,4 -4,-325.865 411.721,-325.865 411.721,4 -4,4"/>
<g id="node1" class="node"><title></title>
</g>
<!-- S -->
<g id="node2" class="node"><title>S</title>
<ellipse fill="none" stroke="black" cx="109" cy="-146.915" rx="18" ry="18"/>
<text text-anchor="middle" x="109" y="-142.715" font-family="Times,serif" font-size="14.00">S</text>
</g>
<!-- &#45;&gt;S -->
<g id="edge1" class="edge"><title>&#45;&gt;S</title>
<path fill="none" stroke="black" d="M54.195,-146.915C62.6538,-146.915 72.0513,-146.915 80.5951,-146.915"/>
<polygon fill="black" stroke="black" points="80.8257,-150.415 90.8257,-146.915 80.8257,-143.415 80.8257,-150.415"/>
</g>
<!-- v1 -->
<g id="node4" class="node"><title>v1</title>
<ellipse fill="none" stroke="black" cx="194.129" cy="-248.915" rx="18.9007" ry="18.9007"/>
<text text-anchor="middle" x="194.129" y="-244.715" font-family="Times,serif" font-size="14.00">v1</text>
</g>
<!-- S&#45;&gt;v1 -->
<g id="edge2" class="edge"><title>S&#45;&gt;v1</title>
<path fill="none" stroke="black" d="M121.211,-160.671C135.016,-177.61 158.643,-206.601 175.032,-226.709"/>
<polygon fill="black" stroke="black" points="172.531,-229.182 181.562,-234.722 177.957,-224.759 172.531,-229.182"/>
<text text-anchor="middle" x="148.107" y="-200.715" font-family="Times,serif" font-size="14.00">ε</text>
</g>
<!-- n1 -->
<g id="node7" class="node"><title>n1</title>
<ellipse fill="none" stroke="black" cx="194.129" cy="-174.915" rx="18.9007" ry="18.9007"/>
<text text-anchor="middle" x="194.129" y="-170.715" font-family="Times,serif" font-size="14.00">n1</text>
</g>
<!-- S&#45;&gt;n1 -->
<g id="edge6" class="edge"><title>S&#45;&gt;n1</title>
<path fill="none" stroke="black" d="M126.424,-152.447C137.811,-156.282 153.23,-161.476 166.376,-165.904"/>
<polygon fill="black" stroke="black" points="165.287,-169.23 175.881,-169.105 167.521,-162.596 165.287,-169.23"/>
<text text-anchor="middle" x="148.107" y="-163.715" font-family="Times,serif" font-size="14.00">ε</text>
</g>
<!-- p1 -->
<g id="node9" class="node"><title>p1</title>
<ellipse fill="none" stroke="black" cx="194.129" cy="-118.915" rx="18.9007" ry="18.9007"/>
<text text-anchor="middle" x="194.129" y="-114.715" font-family="Times,serif" font-size="14.00">p1</text>
</g>
<!-- S&#45;&gt;p1 -->
<g id="edge9" class="edge"><title>S&#45;&gt;p1</title>
<path fill="none" stroke="black" d="M126.424,-141.383C137.811,-137.548 153.23,-132.354 166.376,-127.926"/>
<polygon fill="black" stroke="black" points="167.521,-131.234 175.881,-124.725 165.287,-124.6 167.521,-131.234"/>
<text text-anchor="middle" x="148.107" y="-137.715" font-family="Times,serif" font-size="14.00">ε</text>
</g>
<!-- w1 -->
<g id="node10" class="node"><title>w1</title>
<ellipse fill="none" stroke="black" cx="194.129" cy="-24.915" rx="20.8439" ry="20.8439"/>
<ellipse fill="none" stroke="black" cx="194.129" cy="-24.915" rx="24.8303" ry="24.8303"/>
<text text-anchor="middle" x="194.129" y="-20.715" font-family="Times,serif" font-size="14.00">w1</text>
</g>
<!-- S&#45;&gt;w1 -->
<g id="edge11" class="edge"><title>S&#45;&gt;w1</title>
<path fill="none" stroke="black" d="M119.862,-132.441C133.097,-113.018 156.888,-78.102 173.766,-53.3316"/>
<polygon fill="black" stroke="black" points="176.681,-55.27 179.419,-45.0352 170.896,-51.3283 176.681,-55.27"/>
<text text-anchor="middle" x="148.107" y="-96.715" font-family="Times,serif" font-size="14.00">ε</text>
</g>
<!-- v3 -->
<g id="node3" class="node"><title>v3</title>
<ellipse fill="none" stroke="black" cx="384.771" cy="-266.915" rx="18.9093" ry="18.9093"/>
<ellipse fill="none" stroke="black" cx="384.771" cy="-266.915" rx="22.9007" ry="22.9007"/>
<text text-anchor="middle" x="384.771" y="-262.715" font-family="Times,serif" font-size="14.00">v3</text>
</g>
<!-- v3&#45;&gt;v3 -->
<g id="edge5" class="edge"><title>v3&#45;&gt;v3</title>
<path fill="none" stroke="black" d="M376.684,-288.823C375.802,-298.986 378.497,-307.865 384.771,-307.865 388.79,-307.865 391.34,-304.221 392.422,-298.93"/>
<polygon fill="black" stroke="black" points="395.924,-298.964 392.858,-288.823 388.931,-298.663 395.924,-298.964"/>
<text text-anchor="middle" x="384.771" y="-310.665" font-family="Times,serif" font-size="14.00">a&#45;z0&#45;9</text>
</g>
<!-- v2 -->
<g id="node5" class="node"><title>v2</title>
<ellipse fill="none" stroke="black" cx="296.656" cy="-266.915" rx="18.9007" ry="18.9007"/>
<text text-anchor="middle" x="296.656" y="-262.715" font-family="Times,serif" font-size="14.00">v2</text>
</g>
<!-- v1&#45;&gt;v2 -->
<g id="edge3" class="edge"><title>v1&#45;&gt;v2</title>
<path fill="none" stroke="black" d="M213.101,-252.133C228.254,-254.846 250.197,-258.775 267.652,-261.901"/>
<polygon fill="black" stroke="black" points="267.379,-265.407 277.84,-263.725 268.613,-258.517 267.379,-265.407"/>
<text text-anchor="middle" x="246.375" y="-262.715" font-family="Times,serif" font-size="14.00">a&#45;z</text>
</g>
<!-- v2&#45;&gt;v3 -->
<g id="edge4" class="edge"><title>v2&#45;&gt;v3</title>
<path fill="none" stroke="black" d="M315.919,-266.915C326.229,-266.915 339.416,-266.915 351.419,-266.915"/>
<polygon fill="black" stroke="black" points="351.559,-270.415 361.559,-266.915 351.559,-263.415 351.559,-270.415"/>
<text text-anchor="middle" x="340.714" y="-269.715" font-family="Times,serif" font-size="14.00">ε</text>
</g>
<!-- n2 -->
<g id="node6" class="node"><title>n2</title>
<ellipse fill="none" stroke="black" cx="296.656" cy="-174.915" rx="18.9093" ry="18.9093"/>
<ellipse fill="none" stroke="black" cx="296.656" cy="-174.915" rx="22.9007" ry="22.9007"/>
<text text-anchor="middle" x="296.656" y="-170.715" font-family="Times,serif" font-size="14.00">n2</text>
</g>
<!-- n2&#45;&gt;n2 -->
<g id="edge8" class="edge"><title>n2&#45;&gt;n2</title>
<path fill="none" stroke="black" d="M288.569,-196.823C287.687,-206.986 290.383,-215.865 296.656,-215.865 300.675,-215.865 303.226,-212.221 304.308,-206.93"/>
<polygon fill="black" stroke="black" points="307.81,-206.964 304.743,-196.823 300.816,-206.663 307.81,-206.964"/>
<text text-anchor="middle" x="296.656" y="-218.665" font-family="Times,serif" font-size="14.00">0&#45;9</text>
</g>
<!-- n1&#45;&gt;n2 -->
<g id="edge7" class="edge"><title>n1&#45;&gt;n2</title>
<path fill="none" stroke="black" d="M213.101,-174.915C226.999,-174.915 246.61,-174.915 263.23,-174.915"/>
<polygon fill="black" stroke="black" points="263.63,-178.415 273.63,-174.915 263.63,-171.415 263.63,-178.415"/>
<text text-anchor="middle" x="246.375" y="-177.715" font-family="Times,serif" font-size="14.00">0&#45;9</text>
</g>
<!-- p2 -->
<g id="node8" class="node"><title>p2</title>
<ellipse fill="none" stroke="black" cx="296.656" cy="-110.915" rx="18.9093" ry="18.9093"/>
<ellipse fill="none" stroke="black" cx="296.656" cy="-110.915" rx="22.9007" ry="22.9007"/>
<text text-anchor="middle" x="296.656" y="-106.715" font-family="Times,serif" font-size="14.00">p2</text>
</g>
<!-- p1&#45;&gt;p2 -->
<g id="edge10" class="edge"><title>p1&#45;&gt;p2</title>
<path fill="none" stroke="black" d="M213.101,-117.485C226.999,-116.379 246.61,-114.818 263.23,-113.496"/>
<polygon fill="black" stroke="black" points="263.939,-116.95 273.63,-112.668 263.384,-109.972 263.939,-116.95"/>
<text text-anchor="middle" x="246.375" y="-118.715" font-family="Times,serif" font-size="14.00">+</text>
</g>
<!-- w1&#45;&gt;w1 -->
<g id="edge12" class="edge"><title>w1&#45;&gt;w1</title>
<path fill="none" stroke="black" d="M185.607,-48.7461C184.909,-59.0274 187.75,-67.83 194.129,-67.83 198.215,-67.83 200.85,-64.2174 202.032,-58.9178"/>
<polygon fill="black" stroke="black" points="205.537,-58.9402 202.651,-48.7461 198.55,-58.5151 205.537,-58.9402"/>
<text text-anchor="middle" x="194.129" y="-70.63" font-family="Times,serif" font-size="14.00">\s</text>
</g>
</g>
</svg>
