<?xml version="1.0" encoding="UTF-8" standalone="no"?>
<!DOCTYPE svg PUBLIC "-//W3C//DTD SVG 1.1//EN"
 "http://www.w3.org/Graphics/SVG/1.1/DTD/svg11.dtd">
<!-- Generated by graphviz version 2.38.0 (20140413.2041)
 -->
<!-- Title: Var Pages: 1 -->
<svg width="312pt" height="85pt"
 viewBox="0.72 0.72 311.02 84.72" xmlns="http://www.w3.org/2000/svg" xmlns:xlink="http://www.w3.org/1999/xlink">
<g id="graph0" class="graph" transform="scale(1 1) rotate(0) translate(4.72 80.72)">
<title>Var</title>
<polygon fill="white" stroke="none" points="-4,4 -4,-80 306.304,-80 306.304,4 -4,4"/>
<g id="node1" class="node"><title></title>
</g>
<!-- 1 -->
<g id="node3" class="node"><title>1</title>
<ellipse fill="none" stroke="black" cx="109" cy="-22" rx="18" ry="18"/>
<text text-anchor="middle" x="109" y="-17.8" font-family="Times,serif" font-size="14.00">1</text>
</g>
<!-- &#45;&gt;1 -->
<g id="edge1" class="edge"><title>&#45;&gt;1</title>
<path fill="none" stroke="black" d="M54.195,-22C62.6538,-22 72.0513,-22 80.5951,-22"/>
<polygon fill="black" stroke="black" points="80.8257,-25.5001 90.8257,-22 80.8257,-18.5001 80.8257,-25.5001"/>
</g>
<!-- 3 -->
<g id="node2" class="node"><title>3</title>
<ellipse fill="none" stroke="black" cx="280.304" cy="-22" rx="18" ry="18"/>
<ellipse fill="none" stroke="black" cx="280.304" cy="-22" rx="22" ry="22"/>
<text text-anchor="middle" x="280.304" y="-17.8" font-family="Times,serif" font-size="14.00">3</text>
</g>
<!-- 3&#45;&gt;3 -->
<g id="edge4" class="edge"><title>3&#45;&gt;3</title>
<path fill="none" stroke="black" d="M272.621,-42.9908C271.672,-53.0872 274.233,-62 280.304,-62 284.193,-62 286.641,-58.3422 287.649,-53.0587"/>
<polygon fill="black" stroke="black" points="291.15,-53.1023 287.986,-42.9908 284.154,-52.868 291.15,-53.1023"/>
<text text-anchor="middle" x="280.304" y="-64.8" font-family="Times,serif" font-size="14.00">a&#45;z0&#45;9</text>
</g>
<!-- 2 -->
<g id="node4" class="node"><title>2</title>
<ellipse fill="none" stroke="black" cx="198.09" cy="-22" rx="18" ry="18"/>
<text text-anchor="middle" x="198.09" y="-17.8" font-family="Times,serif" font-size="14.00">2</text>
</g>
<!-- 1&#45;&gt;2 -->
<g id="edge2" class="edge"><title>1&#45;&gt;2</title>
<path fill="none" stroke="black" d="M127.206,-22C139.373,-22 155.934,-22 169.88,-22"/>
<polygon fill="black" stroke="black" points="169.919,-25.5001 179.919,-22 169.919,-18.5001 169.919,-25.5001"/>
<text text-anchor="middle" x="153.545" y="-24.8" font-family="Times,serif" font-size="14.00">a&#45;z</text>
</g>
<!-- 2&#45;&gt;3 -->
<g id="edge3" class="edge"><title>2&#45;&gt;3</title>
<path fill="none" stroke="black" d="M216.101,-22C225.371,-22 237.139,-22 248,-22"/>
<polygon fill="black" stroke="black" points="248.025,-25.5001 258.025,-22 248.025,-18.5001 248.025,-25.5001"/>
<text text-anchor="middle" x="237.197" y="-24.8" font-family="Times,serif" font-size="14.00">ε</text>
</g>
</g>
</svg>
