<?xml version="1.0" encoding="UTF-8" standalone="no"?>
<!DOCTYPE svg PUBLIC "-//W3C//DTD SVG 1.1//EN"
 "http://www.w3.org/Graphics/SVG/1.1/DTD/svg11.dtd">
<!-- Generated by graphviz version 2.38.0 (20140413.2041)
 -->
<!-- Title: Num Pages: 1 -->
<svg width="235pt" height="85pt"
 viewBox="0.72 0.72 234.38 84.72" xmlns="http://www.w3.org/2000/svg" xmlns:xlink="http://www.w3.org/1999/xlink">
<g id="graph0" class="graph" transform="scale(1 1) rotate(0) translate(4.72 80.72)">
<title>Num</title>
<polygon fill="white" stroke="none" points="-4,4 -4,-80 229.662,-80 229.662,4 -4,4"/>
<g id="node1" class="node"><title></title>
</g>
<!-- 1 -->
<g id="node3" class="node"><title>1</title>
<ellipse fill="none" stroke="black" cx="109" cy="-22" rx="18" ry="18"/>
<text text-anchor="middle" x="109" y="-17.8" font-family="Times,serif" font-size="14.00">1</text>
</g>
<!-- &#45;&gt;1 -->
<g id="edge1" class="edge"><title>&#45;&gt;1</title>
<path fill="none" stroke="black" d="M54.195,-22C62.6538,-22 72.0513,-22 80.5951,-22"/>
<polygon fill="black" stroke="black" points="80.8257,-25.5001 90.8257,-22 80.8257,-18.5001 80.8257,-25.5001"/>
</g>
<!-- 2 -->
<g id="node2" class="node"><title>2</title>
<ellipse fill="none" stroke="black" cx="203.662" cy="-22" rx="18" ry="18"/>
<ellipse fill="none" stroke="black" cx="203.662" cy="-22" rx="22" ry="22"/>
<text text-anchor="middle" x="203.662" y="-17.8" font-family="Times,serif" font-size="14.00">2</text>
</g>
<!-- 2&#45;&gt;2 -->
<g id="edge3" class="edge"><title>2&#45;&gt;2</title>
<path fill="none" stroke="black" d="M194.928,-42.5808C193.719,-52.8447 196.631,-62 203.662,-62 208.167,-62 210.98,-58.2427 212.103,-52.8436"/>
<polygon fill="black" stroke="black" points="215.609,-52.6768 212.396,-42.5808 208.612,-52.4767 215.609,-52.6768"/>
<text text-anchor="middle" x="203.662" y="-64.8" font-family="Times,serif" font-size="14.00">0&#45;9</text>
</g>
<!-- 1&#45;&gt;2 -->
<g id="edge2" class="edge"><title>1&#45;&gt;2</title>
<path fill="none" stroke="black" d="M127.429,-22C139.747,-22 156.604,-22 171.24,-22"/>
<polygon fill="black" stroke="black" points="171.407,-25.5001 181.407,-22 171.407,-18.5001 171.407,-25.5001"/>
<text text-anchor="middle" x="154.331" y="-24.8" font-family="Times,serif" font-size="14.00">0&#45;9</text>
</g>
</g>
</svg>
